<mxfile host="app.diagrams.net" modified="2021-11-02T03:47:14.698Z" agent="5.0 (Windows NT 10.0; Win64; x64) AppleWebKit/537.36 (KHTML, like Gecko) Chrome/95.0.4638.54 Safari/537.36" etag="yrq82Dt61way1TGU84R2" version="15.6.5" type="github">
  <diagram id="dcIV4q6Dwkjhf-kOjsX0" name="Page-1">
    <mxGraphModel dx="859" dy="921" grid="1" gridSize="3" guides="1" tooltips="1" connect="1" arrows="1" fold="1" page="1" pageScale="1" pageWidth="827" pageHeight="1169" math="0" shadow="0">
      <root>
        <mxCell id="0" />
        <mxCell id="1" parent="0" />
        <mxCell id="RyvZ7pvWezRGpDUWubTN-53" value="" style="endArrow=none;html=1;rounded=0;entryX=1;entryY=0.5;entryDx=0;entryDy=0;entryPerimeter=0;exitX=0;exitY=0.5;exitDx=0;exitDy=0;exitPerimeter=0;" edge="1" parent="1">
          <mxGeometry width="50" height="50" relative="1" as="geometry">
            <mxPoint x="156" y="612" as="sourcePoint" />
            <mxPoint x="156" y="507" as="targetPoint" />
          </mxGeometry>
        </mxCell>
        <mxCell id="RyvZ7pvWezRGpDUWubTN-52" value="" style="endArrow=none;html=1;rounded=0;entryX=1;entryY=0.5;entryDx=0;entryDy=0;entryPerimeter=0;exitX=0;exitY=0.5;exitDx=0;exitDy=0;exitPerimeter=0;" edge="1" parent="1">
          <mxGeometry width="50" height="50" relative="1" as="geometry">
            <mxPoint x="155" y="480" as="sourcePoint" />
            <mxPoint x="155" y="375" as="targetPoint" />
          </mxGeometry>
        </mxCell>
        <mxCell id="RyvZ7pvWezRGpDUWubTN-1" value="" style="whiteSpace=wrap;html=1;aspect=fixed;" vertex="1" parent="1">
          <mxGeometry x="323" y="90" width="80" height="80" as="geometry" />
        </mxCell>
        <mxCell id="RyvZ7pvWezRGpDUWubTN-2" value="" style="whiteSpace=wrap;html=1;aspect=fixed;" vertex="1" parent="1">
          <mxGeometry x="323" y="230" width="80" height="80" as="geometry" />
        </mxCell>
        <mxCell id="RyvZ7pvWezRGpDUWubTN-3" value="" style="whiteSpace=wrap;html=1;aspect=fixed;" vertex="1" parent="1">
          <mxGeometry x="323" y="370" width="80" height="80" as="geometry" />
        </mxCell>
        <mxCell id="RyvZ7pvWezRGpDUWubTN-4" value="" style="whiteSpace=wrap;html=1;aspect=fixed;" vertex="1" parent="1">
          <mxGeometry x="323" y="510" width="80" height="80" as="geometry" />
        </mxCell>
        <mxCell id="RyvZ7pvWezRGpDUWubTN-5" value="" style="shape=or;whiteSpace=wrap;html=1;" vertex="1" parent="1">
          <mxGeometry x="573" y="300" width="60" height="80" as="geometry" />
        </mxCell>
        <mxCell id="RyvZ7pvWezRGpDUWubTN-7" value="" style="shape=or;whiteSpace=wrap;html=1;direction=south;" vertex="1" parent="1">
          <mxGeometry x="130" y="190" width="50" height="40" as="geometry" />
        </mxCell>
        <mxCell id="RyvZ7pvWezRGpDUWubTN-9" value="" style="shape=or;whiteSpace=wrap;html=1;direction=south;" vertex="1" parent="1">
          <mxGeometry x="130" y="335" width="50" height="40" as="geometry" />
        </mxCell>
        <mxCell id="RyvZ7pvWezRGpDUWubTN-10" value="" style="shape=or;whiteSpace=wrap;html=1;direction=south;" vertex="1" parent="1">
          <mxGeometry x="130" y="470" width="50" height="40" as="geometry" />
        </mxCell>
        <mxCell id="RyvZ7pvWezRGpDUWubTN-12" value="" style="triangle;whiteSpace=wrap;html=1;" vertex="1" parent="1">
          <mxGeometry x="489" y="89" width="30" height="40" as="geometry" />
        </mxCell>
        <mxCell id="RyvZ7pvWezRGpDUWubTN-15" value="" style="endArrow=none;html=1;rounded=0;entryX=1;entryY=0.25;entryDx=0;entryDy=0;exitX=0;exitY=0.5;exitDx=0;exitDy=0;" edge="1" parent="1" source="RyvZ7pvWezRGpDUWubTN-12">
          <mxGeometry width="50" height="50" relative="1" as="geometry">
            <mxPoint x="490" y="119" as="sourcePoint" />
            <mxPoint x="403" y="109" as="targetPoint" />
          </mxGeometry>
        </mxCell>
        <mxCell id="RyvZ7pvWezRGpDUWubTN-16" value="" style="endArrow=none;html=1;rounded=0;" edge="1" parent="1">
          <mxGeometry width="50" height="50" relative="1" as="geometry">
            <mxPoint x="521" y="125" as="sourcePoint" />
            <mxPoint x="521" y="92" as="targetPoint" />
          </mxGeometry>
        </mxCell>
        <mxCell id="RyvZ7pvWezRGpDUWubTN-17" value="" style="endArrow=none;html=1;rounded=0;entryX=1;entryY=0.25;entryDx=0;entryDy=0;" edge="1" parent="1">
          <mxGeometry width="50" height="50" relative="1" as="geometry">
            <mxPoint x="540" y="109" as="sourcePoint" />
            <mxPoint x="522" y="109" as="targetPoint" />
          </mxGeometry>
        </mxCell>
        <mxCell id="RyvZ7pvWezRGpDUWubTN-22" value="" style="triangle;whiteSpace=wrap;html=1;" vertex="1" parent="1">
          <mxGeometry x="472" y="231" width="30" height="40" as="geometry" />
        </mxCell>
        <mxCell id="RyvZ7pvWezRGpDUWubTN-23" value="" style="endArrow=none;html=1;rounded=0;entryX=1;entryY=0.25;entryDx=0;entryDy=0;exitX=0;exitY=0.5;exitDx=0;exitDy=0;" edge="1" parent="1" source="RyvZ7pvWezRGpDUWubTN-22">
          <mxGeometry width="50" height="50" relative="1" as="geometry">
            <mxPoint x="491" y="261" as="sourcePoint" />
            <mxPoint x="404" y="251" as="targetPoint" />
          </mxGeometry>
        </mxCell>
        <mxCell id="RyvZ7pvWezRGpDUWubTN-24" value="" style="endArrow=none;html=1;rounded=0;" edge="1" parent="1">
          <mxGeometry width="50" height="50" relative="1" as="geometry">
            <mxPoint x="503" y="267" as="sourcePoint" />
            <mxPoint x="503" y="234" as="targetPoint" />
          </mxGeometry>
        </mxCell>
        <mxCell id="RyvZ7pvWezRGpDUWubTN-25" value="" style="endArrow=none;html=1;rounded=0;entryX=1;entryY=0.25;entryDx=0;entryDy=0;" edge="1" parent="1">
          <mxGeometry width="50" height="50" relative="1" as="geometry">
            <mxPoint x="520" y="251" as="sourcePoint" />
            <mxPoint x="502" y="251" as="targetPoint" />
          </mxGeometry>
        </mxCell>
        <mxCell id="RyvZ7pvWezRGpDUWubTN-26" value="" style="triangle;whiteSpace=wrap;html=1;" vertex="1" parent="1">
          <mxGeometry x="471" y="365" width="30" height="40" as="geometry" />
        </mxCell>
        <mxCell id="RyvZ7pvWezRGpDUWubTN-27" value="" style="endArrow=none;html=1;rounded=0;entryX=1;entryY=0.25;entryDx=0;entryDy=0;exitX=0;exitY=0.5;exitDx=0;exitDy=0;" edge="1" parent="1" source="RyvZ7pvWezRGpDUWubTN-26">
          <mxGeometry width="50" height="50" relative="1" as="geometry">
            <mxPoint x="491" y="395" as="sourcePoint" />
            <mxPoint x="404" y="385" as="targetPoint" />
          </mxGeometry>
        </mxCell>
        <mxCell id="RyvZ7pvWezRGpDUWubTN-28" value="" style="endArrow=none;html=1;rounded=0;" edge="1" parent="1">
          <mxGeometry width="50" height="50" relative="1" as="geometry">
            <mxPoint x="503" y="401" as="sourcePoint" />
            <mxPoint x="503" y="368" as="targetPoint" />
          </mxGeometry>
        </mxCell>
        <mxCell id="RyvZ7pvWezRGpDUWubTN-29" value="" style="endArrow=none;html=1;rounded=0;entryX=1;entryY=0.25;entryDx=0;entryDy=0;" edge="1" parent="1">
          <mxGeometry width="50" height="50" relative="1" as="geometry">
            <mxPoint x="520" y="385" as="sourcePoint" />
            <mxPoint x="502" y="385" as="targetPoint" />
          </mxGeometry>
        </mxCell>
        <mxCell id="RyvZ7pvWezRGpDUWubTN-30" value="" style="endArrow=none;html=1;rounded=0;" edge="1" parent="1">
          <mxGeometry width="50" height="50" relative="1" as="geometry">
            <mxPoint x="540" y="320" as="sourcePoint" />
            <mxPoint x="540" y="110" as="targetPoint" />
          </mxGeometry>
        </mxCell>
        <mxCell id="RyvZ7pvWezRGpDUWubTN-31" value="" style="endArrow=none;html=1;rounded=0;exitX=0;exitY=0.25;exitDx=0;exitDy=0;exitPerimeter=0;" edge="1" parent="1">
          <mxGeometry width="50" height="50" relative="1" as="geometry">
            <mxPoint x="572" y="317" as="sourcePoint" />
            <mxPoint x="539" y="317" as="targetPoint" />
          </mxGeometry>
        </mxCell>
        <mxCell id="RyvZ7pvWezRGpDUWubTN-32" value="" style="endArrow=none;html=1;rounded=0;exitX=0;exitY=0.25;exitDx=0;exitDy=0;exitPerimeter=0;" edge="1" parent="1">
          <mxGeometry width="50" height="50" relative="1" as="geometry">
            <mxPoint x="573" y="333" as="sourcePoint" />
            <mxPoint x="520" y="333" as="targetPoint" />
          </mxGeometry>
        </mxCell>
        <mxCell id="RyvZ7pvWezRGpDUWubTN-33" value="" style="endArrow=none;html=1;rounded=0;exitX=0;exitY=0.25;exitDx=0;exitDy=0;exitPerimeter=0;" edge="1" parent="1">
          <mxGeometry width="50" height="50" relative="1" as="geometry">
            <mxPoint x="573" y="349" as="sourcePoint" />
            <mxPoint x="520" y="349" as="targetPoint" />
          </mxGeometry>
        </mxCell>
        <mxCell id="RyvZ7pvWezRGpDUWubTN-34" value="" style="endArrow=none;html=1;rounded=0;exitX=0;exitY=0.25;exitDx=0;exitDy=0;exitPerimeter=0;" edge="1" parent="1">
          <mxGeometry width="50" height="50" relative="1" as="geometry">
            <mxPoint x="573" y="364" as="sourcePoint" />
            <mxPoint x="540" y="364" as="targetPoint" />
          </mxGeometry>
        </mxCell>
        <mxCell id="RyvZ7pvWezRGpDUWubTN-35" value="" style="endArrow=none;html=1;rounded=0;" edge="1" parent="1">
          <mxGeometry width="50" height="50" relative="1" as="geometry">
            <mxPoint x="520" y="333" as="sourcePoint" />
            <mxPoint x="520" y="250" as="targetPoint" />
          </mxGeometry>
        </mxCell>
        <mxCell id="RyvZ7pvWezRGpDUWubTN-36" value="" style="endArrow=none;html=1;rounded=0;" edge="1" parent="1">
          <mxGeometry width="50" height="50" relative="1" as="geometry">
            <mxPoint x="520" y="387" as="sourcePoint" />
            <mxPoint x="520" y="348" as="targetPoint" />
          </mxGeometry>
        </mxCell>
        <mxCell id="RyvZ7pvWezRGpDUWubTN-37" value="" style="endArrow=none;html=1;rounded=0;" edge="1" parent="1">
          <mxGeometry width="50" height="50" relative="1" as="geometry">
            <mxPoint x="540" y="531" as="sourcePoint" />
            <mxPoint x="540" y="363" as="targetPoint" />
          </mxGeometry>
        </mxCell>
        <mxCell id="RyvZ7pvWezRGpDUWubTN-38" value="" style="endArrow=none;html=1;rounded=0;exitX=1;exitY=0.25;exitDx=0;exitDy=0;" edge="1" parent="1" source="RyvZ7pvWezRGpDUWubTN-4">
          <mxGeometry width="50" height="50" relative="1" as="geometry">
            <mxPoint x="537" y="488" as="sourcePoint" />
            <mxPoint x="540" y="530" as="targetPoint" />
          </mxGeometry>
        </mxCell>
        <mxCell id="RyvZ7pvWezRGpDUWubTN-39" value="" style="endArrow=none;html=1;rounded=0;exitX=0;exitY=0.75;exitDx=0;exitDy=0;" edge="1" parent="1" source="RyvZ7pvWezRGpDUWubTN-1">
          <mxGeometry width="50" height="50" relative="1" as="geometry">
            <mxPoint x="486" y="446" as="sourcePoint" />
            <mxPoint x="39" y="150" as="targetPoint" />
          </mxGeometry>
        </mxCell>
        <mxCell id="RyvZ7pvWezRGpDUWubTN-40" value="" style="endArrow=none;html=1;rounded=0;" edge="1" parent="1">
          <mxGeometry width="50" height="50" relative="1" as="geometry">
            <mxPoint x="423" y="179" as="sourcePoint" />
            <mxPoint x="162" y="177" as="targetPoint" />
          </mxGeometry>
        </mxCell>
        <mxCell id="RyvZ7pvWezRGpDUWubTN-41" value="" style="endArrow=none;html=1;rounded=0;" edge="1" parent="1">
          <mxGeometry width="50" height="50" relative="1" as="geometry">
            <mxPoint x="421" y="180" as="sourcePoint" />
            <mxPoint x="421" y="108" as="targetPoint" />
          </mxGeometry>
        </mxCell>
        <mxCell id="RyvZ7pvWezRGpDUWubTN-42" value="" style="endArrow=none;html=1;rounded=0;exitX=0.018;exitY=0.356;exitDx=0;exitDy=0;exitPerimeter=0;" edge="1" parent="1" source="RyvZ7pvWezRGpDUWubTN-7">
          <mxGeometry width="50" height="50" relative="1" as="geometry">
            <mxPoint x="164.5" y="190" as="sourcePoint" />
            <mxPoint x="162" y="177" as="targetPoint" />
          </mxGeometry>
        </mxCell>
        <mxCell id="RyvZ7pvWezRGpDUWubTN-43" value="" style="endArrow=none;html=1;rounded=0;" edge="1" parent="1">
          <mxGeometry width="50" height="50" relative="1" as="geometry">
            <mxPoint x="426" y="321" as="sourcePoint" />
            <mxPoint x="165" y="319" as="targetPoint" />
          </mxGeometry>
        </mxCell>
        <mxCell id="RyvZ7pvWezRGpDUWubTN-44" value="" style="endArrow=none;html=1;rounded=0;" edge="1" parent="1">
          <mxGeometry width="50" height="50" relative="1" as="geometry">
            <mxPoint x="424" y="322" as="sourcePoint" />
            <mxPoint x="424" y="249.9999999999999" as="targetPoint" />
          </mxGeometry>
        </mxCell>
        <mxCell id="RyvZ7pvWezRGpDUWubTN-45" value="" style="endArrow=none;html=1;rounded=0;" edge="1" parent="1">
          <mxGeometry width="50" height="50" relative="1" as="geometry">
            <mxPoint x="428" y="457" as="sourcePoint" />
            <mxPoint x="167" y="455" as="targetPoint" />
          </mxGeometry>
        </mxCell>
        <mxCell id="RyvZ7pvWezRGpDUWubTN-46" value="" style="endArrow=none;html=1;rounded=0;" edge="1" parent="1">
          <mxGeometry width="50" height="50" relative="1" as="geometry">
            <mxPoint x="426" y="458" as="sourcePoint" />
            <mxPoint x="426" y="385.9999999999999" as="targetPoint" />
          </mxGeometry>
        </mxCell>
        <mxCell id="RyvZ7pvWezRGpDUWubTN-47" value="" style="endArrow=none;html=1;rounded=0;exitX=0.018;exitY=0.356;exitDx=0;exitDy=0;exitPerimeter=0;" edge="1" parent="1">
          <mxGeometry width="50" height="50" relative="1" as="geometry">
            <mxPoint x="165.19999999999993" y="333.7199999999999" as="sourcePoint" />
            <mxPoint x="165" y="320" as="targetPoint" />
          </mxGeometry>
        </mxCell>
        <mxCell id="RyvZ7pvWezRGpDUWubTN-48" value="" style="endArrow=none;html=1;rounded=0;exitX=0.018;exitY=0.356;exitDx=0;exitDy=0;exitPerimeter=0;" edge="1" parent="1">
          <mxGeometry width="50" height="50" relative="1" as="geometry">
            <mxPoint x="168.19999999999993" y="469.7199999999999" as="sourcePoint" />
            <mxPoint x="168" y="456" as="targetPoint" />
          </mxGeometry>
        </mxCell>
        <mxCell id="RyvZ7pvWezRGpDUWubTN-49" value="" style="endArrow=none;html=1;rounded=0;entryX=0;entryY=0.75;entryDx=0;entryDy=0;entryPerimeter=0;" edge="1" parent="1">
          <mxGeometry width="50" height="50" relative="1" as="geometry">
            <mxPoint x="147" y="150" as="sourcePoint" />
            <mxPoint x="147.5" y="190" as="targetPoint" />
          </mxGeometry>
        </mxCell>
        <mxCell id="RyvZ7pvWezRGpDUWubTN-50" value="" style="endArrow=none;html=1;rounded=0;entryX=1;entryY=0.5;entryDx=0;entryDy=0;entryPerimeter=0;exitX=0;exitY=0.5;exitDx=0;exitDy=0;exitPerimeter=0;" edge="1" parent="1" source="RyvZ7pvWezRGpDUWubTN-9" target="RyvZ7pvWezRGpDUWubTN-7">
          <mxGeometry width="50" height="50" relative="1" as="geometry">
            <mxPoint x="375" y="494" as="sourcePoint" />
            <mxPoint x="425" y="444" as="targetPoint" />
          </mxGeometry>
        </mxCell>
        <mxCell id="RyvZ7pvWezRGpDUWubTN-54" value="" style="endArrow=none;html=1;rounded=0;entryX=0;entryY=0.25;entryDx=0;entryDy=0;" edge="1" parent="1" target="RyvZ7pvWezRGpDUWubTN-1">
          <mxGeometry width="50" height="50" relative="1" as="geometry">
            <mxPoint x="270" y="110" as="sourcePoint" />
            <mxPoint x="425" y="444" as="targetPoint" />
          </mxGeometry>
        </mxCell>
        <mxCell id="RyvZ7pvWezRGpDUWubTN-55" value="" style="endArrow=none;html=1;rounded=0;" edge="1" parent="1">
          <mxGeometry width="50" height="50" relative="1" as="geometry">
            <mxPoint x="270" y="152" as="sourcePoint" />
            <mxPoint x="270" y="110" as="targetPoint" />
          </mxGeometry>
        </mxCell>
        <mxCell id="RyvZ7pvWezRGpDUWubTN-56" value="" style="endArrow=none;html=1;rounded=0;exitX=0;exitY=0.25;exitDx=0;exitDy=0;" edge="1" parent="1" source="RyvZ7pvWezRGpDUWubTN-2">
          <mxGeometry width="50" height="50" relative="1" as="geometry">
            <mxPoint x="342" y="434" as="sourcePoint" />
            <mxPoint x="273" y="250" as="targetPoint" />
          </mxGeometry>
        </mxCell>
        <mxCell id="RyvZ7pvWezRGpDUWubTN-57" value="" style="endArrow=none;html=1;rounded=0;" edge="1" parent="1">
          <mxGeometry width="50" height="50" relative="1" as="geometry">
            <mxPoint x="273" y="294" as="sourcePoint" />
            <mxPoint x="273" y="249" as="targetPoint" />
          </mxGeometry>
        </mxCell>
        <mxCell id="RyvZ7pvWezRGpDUWubTN-58" value="" style="endArrow=none;html=1;rounded=0;" edge="1" parent="1">
          <mxGeometry width="50" height="50" relative="1" as="geometry">
            <mxPoint x="156" y="291" as="sourcePoint" />
            <mxPoint x="321" y="291" as="targetPoint" />
          </mxGeometry>
        </mxCell>
        <mxCell id="RyvZ7pvWezRGpDUWubTN-59" value="" style="endArrow=none;html=1;rounded=0;exitX=0;exitY=0.25;exitDx=0;exitDy=0;" edge="1" parent="1">
          <mxGeometry width="50" height="50" relative="1" as="geometry">
            <mxPoint x="325" y="388" as="sourcePoint" />
            <mxPoint x="275" y="388" as="targetPoint" />
          </mxGeometry>
        </mxCell>
        <mxCell id="RyvZ7pvWezRGpDUWubTN-60" value="" style="endArrow=none;html=1;rounded=0;" edge="1" parent="1">
          <mxGeometry width="50" height="50" relative="1" as="geometry">
            <mxPoint x="275" y="432" as="sourcePoint" />
            <mxPoint x="275" y="387" as="targetPoint" />
          </mxGeometry>
        </mxCell>
        <mxCell id="RyvZ7pvWezRGpDUWubTN-61" value="" style="endArrow=none;html=1;rounded=0;" edge="1" parent="1">
          <mxGeometry width="50" height="50" relative="1" as="geometry">
            <mxPoint x="157" y="429" as="sourcePoint" />
            <mxPoint x="322" y="429" as="targetPoint" />
          </mxGeometry>
        </mxCell>
        <mxCell id="RyvZ7pvWezRGpDUWubTN-62" value="" style="endArrow=none;html=1;rounded=0;exitX=0;exitY=0.25;exitDx=0;exitDy=0;" edge="1" parent="1">
          <mxGeometry width="50" height="50" relative="1" as="geometry">
            <mxPoint x="324" y="531" as="sourcePoint" />
            <mxPoint x="274" y="531" as="targetPoint" />
          </mxGeometry>
        </mxCell>
        <mxCell id="RyvZ7pvWezRGpDUWubTN-63" value="" style="endArrow=none;html=1;rounded=0;" edge="1" parent="1">
          <mxGeometry width="50" height="50" relative="1" as="geometry">
            <mxPoint x="274" y="575" as="sourcePoint" />
            <mxPoint x="274" y="530" as="targetPoint" />
          </mxGeometry>
        </mxCell>
        <mxCell id="RyvZ7pvWezRGpDUWubTN-64" value="" style="endArrow=none;html=1;rounded=0;" edge="1" parent="1">
          <mxGeometry width="50" height="50" relative="1" as="geometry">
            <mxPoint x="157" y="572" as="sourcePoint" />
            <mxPoint x="322" y="572" as="targetPoint" />
          </mxGeometry>
        </mxCell>
        <mxCell id="RyvZ7pvWezRGpDUWubTN-65" value="" style="endArrow=none;html=1;rounded=0;" edge="1" parent="1">
          <mxGeometry width="50" height="50" relative="1" as="geometry">
            <mxPoint x="300" y="552" as="sourcePoint" />
            <mxPoint x="300" y="52.45452880859375" as="targetPoint" />
          </mxGeometry>
        </mxCell>
        <mxCell id="RyvZ7pvWezRGpDUWubTN-67" value="" style="endArrow=classic;html=1;rounded=0;" edge="1" parent="1">
          <mxGeometry width="50" height="50" relative="1" as="geometry">
            <mxPoint x="300" y="551" as="sourcePoint" />
            <mxPoint x="323" y="551.3650793650793" as="targetPoint" />
          </mxGeometry>
        </mxCell>
        <mxCell id="RyvZ7pvWezRGpDUWubTN-68" value="" style="endArrow=classic;html=1;rounded=0;" edge="1" parent="1">
          <mxGeometry width="50" height="50" relative="1" as="geometry">
            <mxPoint x="300" y="409" as="sourcePoint" />
            <mxPoint x="323" y="409.3650793650793" as="targetPoint" />
          </mxGeometry>
        </mxCell>
        <mxCell id="RyvZ7pvWezRGpDUWubTN-69" value="" style="endArrow=classic;html=1;rounded=0;" edge="1" parent="1">
          <mxGeometry width="50" height="50" relative="1" as="geometry">
            <mxPoint x="300" y="271" as="sourcePoint" />
            <mxPoint x="323" y="271.3650793650793" as="targetPoint" />
          </mxGeometry>
        </mxCell>
        <mxCell id="RyvZ7pvWezRGpDUWubTN-70" value="" style="endArrow=classic;html=1;rounded=0;" edge="1" parent="1">
          <mxGeometry width="50" height="50" relative="1" as="geometry">
            <mxPoint x="300" y="130" as="sourcePoint" />
            <mxPoint x="323" y="130.36507936507928" as="targetPoint" />
          </mxGeometry>
        </mxCell>
        <mxCell id="RyvZ7pvWezRGpDUWubTN-71" value="" style="endArrow=none;html=1;rounded=0;entryX=1;entryY=0.25;entryDx=0;entryDy=0;exitX=0;exitY=0.5;exitDx=0;exitDy=0;" edge="1" parent="1">
          <mxGeometry width="50" height="50" relative="1" as="geometry">
            <mxPoint x="698.9999999999999" y="341" as="sourcePoint" />
            <mxPoint x="632" y="341" as="targetPoint" />
          </mxGeometry>
        </mxCell>
      </root>
    </mxGraphModel>
  </diagram>
</mxfile>
